Lost Complete Season 5 (Extras removed)

The Greatest Tv Show ever

Small Size, Excellent Quality

Details of one of files:
 
http://img120.pixroute.com/i/00286/jl4b6ptdrhpf_t.jpg
 
http://img120.pixroute.com/i/00286/gmfv2kv3utj7_t.jpg


Lost - [5x00] - Destiny Calls.mkv

Format                           : Matroska
File size                        : 140 MiB
Duration                         : 42mn 14s
Overall bit rate                 : 462 Kbps

Video
ID                               : 1
Format                           : AVC
Format/Info                      : Advanced Video Codec
Format profile                   : High@L3.0
Format settings, CABAC           : Yes
Format settings, ReFrames        : 5 frames
Codec ID                         : V_MPEG4/ISO/AVC
Duration                         : 42mn 14s
Bit rate                         : 410 Kbps
Width                            : 640 pixels
Height                           : 352 pixels
Display aspect ratio             : 16:9
Original display aspect ratio    : 16:9
Frame rate                       : 29.970 fps
Color space                      : YUV
Chroma subsampling               : 4:2:0
Bit depth                        : 8 bits
Scan type                        : Progressive
Bits/(Pixel*Frame)               : 0.061
Stream size                      : 122 MiB (88%)

Audio
ID                               : 2
Format                           : MPEG Audio
Format version                   : Version 1
Format profile                   : Layer 3
Mode                             : Joint stereo
Mode extension                   : MS Stereo
Codec ID                         : A_MPEG/L3
Codec ID/Hint                    : MP3
Duration                         : 42mn 14s
Bit rate mode                    : Constant
Bit rate                         : 48.0 Kbps
Channel(s)                       : 2 channels
Sampling rate                    : 44.1 KHz
Compression mode                 : Lossy
Stream size                      : 14.5 MiB (10%)


Please Seed After Downloading


Note : this is the same torrent as Lost Season 5 without Extra, Bloopers, Deleted Scenes by RiddlerA .i have uploaded this as for reseed purpose..